<svg xmlns="http://www.w3.org/2000/svg" viewBox="0 0 64 64" role="img" aria-label="Siirt Kurtalan Ekspres Operasyon">
  <rect width="64" height="64" rx="16" fill="#12100E" />
  <rect x="10" y="10" width="44" height="44" rx="11" fill="#A32619" />
  <path
    d="M23 18h18a5 5 0 0 1 5 5v18a3 3 0 0 1-3 3h-1.5v1.5a2.5 2.5 0 0 1-5 0V44h-11v1.5a2.5 2.5 0 0 1-5 0V44H19a3 3 0 0 1-3-3V23a5 5 0 0 1 5-5Z"
    fill="#fff"
    transform="translate(1 0)"
  />
  <path d="M21 25h22v10H21z" fill="#A32619" opacity="0.92" />
</svg>
